<svg xmlns="http://www.w3.org/2000/svg" xmlns:xlink="http://www.w3.org/1999/xlink" version="1.1" x="0px" y="0px" viewBox="0 0 500 500"  xml:space="preserve">
    <g id="Capa_3" transform="translate(-1470,-310)">
        <g>
		    <path style="fill:#F2C936;" d="M1928.8,460.3c-0.1-1.1-0.1-2.1-0.2-3.1c-0.2-4.2-0.4-8.2-0.7-12.2c-0.2-2-0.3-3.9-0.4-5.8    c-0.1-1-0.2-1.9-0.3-2.9c-0.1-1-0.3-1.9-0.4-2.8c-0.5-3.7-1-7.4-1.7-10.9c-0.3-1.7-0.6-3.5-0.9-5.2c-0.3-1.7-0.7-3.4-1.1-5    c-0.4-1.6-0.8-3.2-1.1-4.8c-0.4-1.6-0.8-3.1-1.2-4.6c-0.8-3-1.6-5.9-2.4-8.7c-1.8-5.7-3.6-10.8-5.4-15.3c-0.9-2.3-1.7-4.4-2.5-6.3    c-0.2-0.5-0.4-0.9-0.7-1.4v-36.6c0-2.1-1.7-3.7-3.7-3.7h-12.2c-2.1,0-3.7,1.7-3.7,3.7v32.2c0,0,0,0,0,0c0,0,0,0.1,0,0.1    c0,0.1,0,0.2,0.1,0.4v5.4h0.8c0.1,0.7,0.2,1.4,0.3,2.1c0.2,1.1,0.3,2.1,0.4,3.2c0.2,2.2,0.3,4.3,0.5,6.5c0.4,4.4,0.6,9,0.8,13.6    c0.1,1.2,0.1,2.3,0.2,3.5c0,1.2,0,2.3,0,3.5c0,2.4,0,4.8-0.1,7.2c-0.1,4.8-0.2,9.8-0.5,14.9c-0.4,5-0.9,10.1-1.5,15.3    c-0.3,2.6-0.6,5.2-0.9,7.9c-0.4,2.6-0.9,5.2-1.3,7.9c-1,5.3-2,10.7-3.1,16.1c-1.2,5.4-2.7,10.8-4.2,16.3c-0.8,2.7-1.6,5.5-2.4,8.3    c-0.4,1.4-0.9,2.7-1.3,4.1c-0.5,1.4-0.9,2.7-1.4,4.1c-1.9,5.5-3.9,11.1-6,16.7c-9,22-20.5,44.2-34.7,65.2    c-14.3,21-31,40.9-49.5,59.1c-4.8,4.4-9.6,8.8-14.4,13.1c-2.4,2.2-4.8,4.4-7.4,6.3c-3.7,3-7.5,6-11.2,8.9c-1,0.8-3,2.3-4,3.1    c-0.7,0.5-1.3,1-2,1.5l-2,1.4l-4,2.8c-2.6,1.9-5.3,3.7-8,5.5c-2.7,1.8-5.3,3.7-8,5.3c-5.5,3.3-11,6.6-16.5,9.8l-4.1,2.4    c-1.4,0.7-2.8,1.5-4.2,2.2c-2.8,1.4-5.7,2.9-8.5,4.3c-5.6,2.8-11.2,5.6-17,7.9c-5.7,2.4-11.4,4.8-17.1,7c-5.8,2-11.5,4-17.2,5.9    c-2.9,0.9-5.7,1.9-8.5,2.7c-2.9,0.8-5.7,1.5-8.6,2.3c-5.7,1.4-11.3,2.9-16.9,4.1c-5.6,1.1-11.2,2.1-16.7,3c-2.7,0.5-5.4,1-8.2,1.3    c-2.7,0.3-5.5,0.6-8.1,0.9c-5.4,0.6-10.7,1.1-15.8,1.5c-2.6,0.2-5.2,0.2-7.8,0.3c-2.6,0.1-5.1,0.1-7.6,0.2c-2.5,0.1-5,0.1-7.4,0.1    c-1.2,0-2.4,0-3.7,0c-1.2-0.1-2.4-0.1-3.7-0.2c-0.8,0-1.6-0.1-2.4-0.1c1.4,0.7,2.9,1.4,4.5,2.2c2,0.8,4.1,1.7,6.3,2.5    c2.2,0.9,4.6,1.8,7.1,2.7c2.5,0.9,5.2,1.9,7.9,2.7c1.4,0.4,2.8,0.8,4.2,1.2c1.5,0.4,2.9,0.8,4.4,1.2c1.5,0.4,3.1,0.8,4.6,1.2    c1.6,0.4,3.2,0.8,4.8,1.1c1.6,0.4,3.3,0.8,5,1.1c1.7,0.3,3.4,0.6,5.2,0.9c3.5,0.6,7.1,1.1,10.9,1.7c1.9,0.2,3.8,0.6,5.7,0.7    c1.9,0.2,3.9,0.3,5.8,0.5c4,0.3,8,0.5,12.2,0.7c1,0.1,2.1,0.1,3.1,0.2c1,0,2.1,0,3.1,0c2.1,0,4.3,0,6.4-0.1c2.2,0,4.4-0.1,6.6-0.2    c2.2-0.1,4.5-0.1,6.7-0.3c4.5-0.4,9-0.8,13.6-1.3c2.3-0.3,4.7-0.5,7-0.8c2.4-0.3,4.7-0.7,7-1.1c4.7-0.8,9.5-1.7,14.4-2.7    c4.8-1,9.6-2.4,14.6-3.7c2.5-0.7,4.9-1.3,7.4-2c2.5-0.7,4.9-1.6,7.3-2.4c4.9-1.7,9.9-3.4,14.8-5.2c4.9-2,9.8-4.1,14.7-6.3    c5-2.1,9.8-4.6,14.7-7.1c2.4-1.3,4.9-2.5,7.3-3.8c1.2-0.7,2.4-1.3,3.6-2l3.6-2.1c4.7-2.9,9.5-5.7,14.2-8.7    c2.4-1.5,4.6-3.2,6.9-4.7c2.3-1.6,4.6-3.2,6.9-4.9l3.4-2.5l1.7-1.2c0.6-0.4,1.1-0.9,1.7-1.4c0.9-0.7,2.6-2,3.5-2.7    c3.2-2.6,6.4-5.3,9.6-8c2.2-1.8,4.3-3.7,6.4-5.6c4.2-3.8,8.3-7.8,12.4-11.7c16-16.2,30.4-34,42.7-52.6    c12.2-18.8,22.1-38.5,29.8-58.1c1.8-5,3.5-9.9,5.2-14.8c0.4-1.2,0.8-2.5,1.2-3.7c0.4-1.2,0.8-2.4,1.2-3.7c0.7-2.5,1.4-4.9,2-7.4    c1.3-4.9,2.6-9.7,3.6-14.5c1-4.9,1.9-9.7,2.7-14.4c0.4-2.4,0.8-4.7,1.1-7c0.3-2.4,0.5-4.7,0.8-7c0.5-4.6,0.9-9.2,1.3-13.6    c0.2-4.5,0.3-8.9,0.4-13.3c0.1-2.2,0.1-4.3,0.1-6.4C1928.8,462.4,1928.8,461.4,1928.8,460.3z"/>
		    <path style="fill:#F0E246;" d="M1893.2,401.8c-0.1-1.2-0.1-2.4-0.2-3.5c-0.3-4.7-0.5-9.2-0.8-13.6c-0.2-2.2-0.3-4.4-0.5-6.5    c-0.1-1.1-0.2-2.1-0.4-3.2c-0.2-1.1-0.3-2.1-0.5-3.2c-0.2-1.6-0.5-3.2-0.7-4.7c-0.9,1.6-1.8,3.3-2.9,5.1c-1.1,1.7-2.2,3.6-3.4,5.5    c-2.4,3.9-4.9,8-7.5,12.4c-1.4,2.3-2.9,4.6-4.4,7c-0.7,1.2-1.5,2.4-2.2,3.6c-0.7,1.2-1.5,2.5-2.2,3.7c-3,5.1-6.6,10.3-9.8,15.7    c-0.9,1.4-1.7,2.7-2.6,4.1c-0.9,1.4-1.8,2.7-2.7,4.1c-1.9,2.8-3.6,5.6-5.5,8.4c-0.5,0.7-0.9,1.4-1.4,2.1c-0.5,0.7-1,1.4-1.5,2.1    c-1,1.4-2,2.9-3,4.3c-2,2.9-3.9,5.8-5.9,8.7c-2.1,2.9-4.2,5.8-6.3,8.8c-1,1.5-2.1,3-3.1,4.5c-1,1.5-2.2,2.9-3.3,4.4    c-2.2,3-4.4,5.9-6.5,8.9c-0.5,0.8-1.1,1.5-1.7,2.2c-0.6,0.7-1.2,1.5-1.7,2.2c-1.1,1.5-2.3,3-3.4,4.5c-1.1,1.5-2.2,3-3.3,4.5    c-1.1,1.5-2.4,3-3.5,4.4c-2.4,3-4.7,6-7,9c-1.2,1.5-2.5,2.9-3.7,4.4c-1.2,1.5-2.4,3-3.6,4.5l-1.8,2.2c-0.6,0.8-1.2,1.5-1.8,2.2    c-1.3,1.5-2.5,2.9-3.8,4.4c-1.2,1.5-2.5,3-3.7,4.4l-1.8,2.2l-2,2.2c-2.6,2.9-5.2,5.8-7.6,8.8c-10.5,11.5-21.2,22.9-32.1,34    c-2.8,2.7-5.7,5.4-8.4,8.2l-2.1,2.1c-0.7,0.7-1.4,1.3-2.1,2l-4.3,4l-4.2,4.1c-0.7,0.7-1.4,1.3-2.1,2l-2.2,1.9    c-2.9,2.6-5.7,5.3-8.6,7.9c-11.7,10.3-23.5,20.1-35.3,29.8c-3,2.3-6,4.6-9,7c-1.5,1.2-2.9,2.4-4.4,3.5c-1.5,1.1-3,2.2-4.5,3.3    c-1.5,1.1-3,2.3-4.5,3.4c-1.5,1.1-2.9,2.4-4.4,3.4c-3,2.1-6,4.3-8.9,6.5c-1.5,1.1-2.9,2.3-4.4,3.3c-1.5,1-3,2-4.5,3.1    c-3,2.1-5.9,4.1-8.8,6.3c-2.9,2-5.9,3.9-8.7,5.9c-1.4,1-2.9,2-4.3,3c-0.7,0.5-1.4,1-2.1,1.5c-0.7,0.5-1.4,0.9-2.1,1.4    c-2.8,1.9-5.7,3.6-8.4,5.5c-1.4,0.9-2.8,1.8-4.1,2.8c-1.4,0.9-2.7,1.7-4.1,2.6c-2.7,1.7-5.4,3.3-8,5c-2.6,1.7-5.2,3.4-7.7,4.8    c-1.3,0.8-2.5,1.5-3.7,2.2c-1.2,0.8-2.4,1.5-3.6,2.2c-1.2,0.7-2.4,1.5-3.5,2.2c-1.2,0.7-2.3,1.5-3.4,2.2    c-4.5,2.6-8.8,5.2-12.7,7.5c-1.9,1.2-3.8,2.4-5.6,3.4c-1.1,0.6-2.1,1.2-3.1,1.8c2.4,1.4,4,4,4,7v4.5c0,3.4-2.1,6.3-5,7.5    c0.3,0.1,0.6,0.3,0.9,0.4c0.8,0,1.6,0.1,2.4,0.1c1.2,0.1,2.4,0.1,3.7,0.2c1.2,0,2.4,0,3.7,0c2.5,0,4.9,0,7.4-0.1    c2.5,0,5.1-0.1,7.6-0.2c2.6-0.1,5.2-0.1,7.8-0.3c5.2-0.4,10.5-0.9,15.8-1.5c2.7-0.3,5.4-0.6,8.1-0.9c2.7-0.3,5.4-0.8,8.2-1.3    c5.5-0.9,11.1-1.9,16.7-3c5.6-1.2,11.2-2.7,16.9-4.1c2.8-0.8,5.7-1.5,8.6-2.3c2.9-0.8,5.7-1.8,8.5-2.7c5.7-1.9,11.4-3.8,17.2-5.9    c5.7-2.3,11.4-4.6,17.1-7c5.8-2.3,11.4-5.1,17-7.9c2.8-1.4,5.6-2.8,8.5-4.3c1.4-0.7,2.8-1.5,4.2-2.2l4.1-2.4    c5.5-3.2,11-6.4,16.5-9.8c2.8-1.7,5.4-3.5,8-5.3c2.7-1.8,5.3-3.6,8-5.5l4-2.8l2-1.4c0.7-0.5,1.3-1,2-1.5c1-0.8,3-2.3,4-3.1    c3.7-3,7.5-6,11.2-8.9c2.6-2,5-4.2,7.4-6.3c4.9-4.3,9.6-8.7,14.4-13.1c18.6-18.2,35.3-38.1,49.5-59.1    c14.1-21.1,25.6-43.2,34.7-65.2c2.1-5.6,4.1-11.2,6-16.7c0.5-1.4,1-2.8,1.4-4.1c0.5-1.4,1-2.7,1.3-4.1c0.8-2.8,1.6-5.5,2.4-8.3    c1.5-5.5,3-10.9,4.2-16.3c1.1-5.5,2.2-10.8,3.1-16.1c0.5-2.7,1-5.3,1.3-7.9c0.3-2.6,0.6-5.3,0.9-7.9c0.6-5.2,1.1-10.3,1.5-15.3    c0.3-5.1,0.4-10,0.5-14.9c0.1-2.4,0.1-4.8,0.1-7.2C1893.2,404.2,1893.3,403,1893.2,401.8z"/>
		    <path style="fill:#7E5530;" d="M1529.1,744v-4.5c0-3-1.6-5.5-4-7c-0.6,0.4-1.3,0.7-1.9,1.1c-1.6,0.9-3,1.8-4.4,2.6    c-1.3,0.8-2.6,1.6-3.7,2.3c-0.1,0-0.2,0.1-0.2,0.1c-3.1,1.9-3,6.5,0.2,8.3c0,0,0.1,0.1,0.1,0.1c1.2,0.6,2.4,1.3,3.9,2.1    c1.4,0.8,3,1.5,4.7,2.4c0,0,0.1,0,0.1,0.1C1527,750.3,1529.1,747.4,1529.1,744z"/>
	    </g>
    </g>
</svg>