<svg xmlns="http://www.w3.org/2000/svg" xmlns:xlink="http://www.w3.org/1999/xlink" version="1.1" x="0px" y="0px" viewBox="0 0 500 500"  xml:space="preserve">
<g id="Capa_3" transform="translate(-830,-310)">
	<g >
		<path style="fill:#91AF24;" d="M1255.3,342.8c0,0-68.5-11.5-103.6,23.7c-6.9,6.9-12,15.2-15.8,23.9c-0.6-49.4-56.6-89.3-56.6-89.3    s-56,39.9-56.6,89.3c-3.7-8.7-8.9-17-15.8-23.9c-35.2-35.2-103.6-23.7-103.6-23.7s-11.5,68.5,23.7,103.6s103.6,23.7,103.6,23.7    s3.4-20.1,0.9-44.1c15.9,32.4,47.8,55.2,47.8,55.2s31.9-22.8,47.8-55.2c-2.5,24,0.9,44.1,0.9,44.1s68.5,11.5,103.6-23.7    C1266.8,411.3,1255.3,342.8,1255.3,342.8z"/>
		<path style="fill:#63497A;" d="M1314,535.6c0-23.4-19-42.4-42.4-42.4c-1.7,0-3.3,0.1-4.9,0.3c6.3-7.4,10-16.9,10-27.4    c0-23.4-19-42.4-42.4-42.4c-13.5,0-25.6,6.3-33.3,16.2c0-0.1,0-0.1,0-0.2c0-23.4-19-42.4-42.4-42.4c-23.4,0-42.4,19-42.4,42.4    c0,2.1,0.2,4.2,0.5,6.2c-7.2-13.2-21.2-22.2-37.3-22.2c-11.4,0-21.7,4.5-29.3,11.8c0-0.6,0-1.3,0-2c0-23.4-19-42.4-42.4-42.4    s-42.4,19-42.4,42.4c0,4.9,0.8,9.6,2.4,13.9c-6.9-14.1-21.4-23.7-38.1-23.7c-23.4,0-42.4,19-42.4,42.4c0,11,4.2,21,11.1,28.6    c-3.5-1-7.2-1.5-11.1-1.5c-23.4,0-42.4,19-42.4,42.4s19,42.4,42.4,42.4c0.8,0,1.5,0,2.3-0.1c-7.9,7.7-12.9,18.5-12.9,30.4    c0,23.4,19,42.4,42.4,42.4c4.9,0,9.6-0.8,14-2.4c-2.2,5.1-3.4,10.7-3.4,16.6c0,23.4,19,42.4,42.4,42.4c6.3,0,12.2-1.4,17.5-3.8    c-1.5,4.4-2.3,9-2.3,13.9c0,23.4,19,42.4,42.4,42.4c2.5,0,5-0.2,7.4-0.7c0,0.2,0,0.4,0,0.7c0,23.4,19,42.4,42.4,42.4    c23.4,0,42.4-19,42.4-42.4c0-1.5-0.1-2.9-0.2-4.3c5.6,2.8,11.9,4.3,18.6,4.3c23.4,0,42.4-19,42.4-42.4c0-4-0.6-7.9-1.6-11.5    c3.5,0.9,7.1,1.4,10.9,1.4c23.4,0,42.4-19,42.4-42.4c0-7.6-2-14.7-5.5-20.9c6.6,4.2,14.4,6.7,22.8,6.7c23.4,0,42.4-19,42.4-42.4    c0-12.4-5.3-23.5-13.8-31.3C1299.5,573.1,1314,556.1,1314,535.6z"/>
		<circle style="fill:#473665;" cx="955.2" cy="514" r="24.5"/>
		<circle style="fill:#473665;" cx="1110.1" cy="573.6" r="24.5"/>
		<circle style="fill:#473665;" cx="1004.3" cy="609" r="24.5"/>
		<circle style="fill:#473665;" cx="1160.5" cy="643.4" r="24.5"/>
		<circle style="fill:#473665;" cx="1064" cy="683.9" r="24.5"/>
		<circle style="fill:#473665;" cx="1215.9" cy="549" r="24.5"/>
		<circle style="fill:#473665;" cx="1166.9" cy="477" r="24.5"/>
		<circle style="fill:#473665;" cx="1049.6" cy="501.6" r="24.5"/>
	</g>
</g>
</svg>