<svg xmlns="http://www.w3.org/2000/svg" xmlns:xlink="http://www.w3.org/1999/xlink" version="1.1" x="0px" y="0px" viewBox="0 0 500 500"  xml:space="preserve">
    <g id="Capa_3" transform="translate(-153,-312)">                    
        <g>
            <path style="fill:#ffd2b4;" d="M464.4,404.8c-23.1,0-44.8,7.9-63.5,21.6c-18.7-13.7-40.4-21.6-63.5-21.6    c-70.2,0-127.1,72.2-127.1,161.2c0,89,73.2,201.5,190.6,201.5C521,767.4,591.5,655,591.5,566C591.5,476.9,534.6,404.8,464.4,404.8    z"/>
            <path style="fill:#91AF24;" d="M487.6,421.8c35.4-20.9,41.6-76.2,41.6-76.2s-51.3-21.3-86.8-0.3c-35.4,20.9-41.6,76.2-41.6,76.2    S452.2,442.7,487.6,421.8z"/>
            <path style="fill:#8D5726;" d="M400.9,457.1L400.9,457.1c-4.2,0-7.6-3.4-7.6-7.6v-58.3c0-4.2,3.4-7.6,7.6-7.6h0    c4.2,0,7.6,3.4,7.6,7.6v58.3C408.5,453.7,405.1,457.1,400.9,457.1z"/>
        </g>
    </g>
</svg>