<svg xmlns="http://www.w3.org/2000/svg" xmlns:xlink="http://www.w3.org/1999/xlink" version="1.1" x="0px" y="0px" viewBox="0 0 600 500"  xml:space="preserve">
    <g id="Capa_3" transform="translate(-2072,-1170)">
        <g >
            <path style="fill:#D9D62D;" d="M2483.9,1333c0.2-2.9,0.3-5.9,0.3-8.9c-0.1-63.2-52.2-114.7-115.4-114.2    c-62.7,0.6-113.4,51.6-113.4,114.4c0,3.2,0.1,6.4,0.4,9.5c2.3,27.3-5.6,54.4-21.6,76.7c-19.9,27.7-31.5,61.7-31.2,98.5    c0.7,92.3,77.1,166.9,169.4,165.5c91-1.4,164.3-75.5,164.3-166.8c0-36-11.4-69.3-30.7-96.5    C2489.7,1388.5,2481.8,1360.9,2483.9,1333z"/>
            <g>
                <path style="fill:#91AF24;" d="M2452.9,1211.1c35.4-20.9,41.6-76.2,41.6-76.2s-51.3-21.3-86.8-0.3s-41.6,76.2-41.6,76.2     S2417.5,1232.1,2452.9,1211.1z"/>
                <path style="fill:#8D5726;" d="M2366.1,1246.4L2366.1,1246.4c-4.2,0-7.6-3.4-7.6-7.6v-58.3c0-4.2,3.4-7.6,7.6-7.6l0,0     c4.2,0,7.6,3.4,7.6,7.6v58.3C2373.8,1243,2370.3,1246.4,2366.1,1246.4z"/>
            </g>
        </g>
    </g>
</svg>