<svg xmlns="http://www.w3.org/2000/svg" xmlns:xlink="http://www.w3.org/1999/xlink" version="1.1" x="0px" y="0px" viewBox="0 0 500 500"  xml:space="preserve">
    <g id="Capa_3" transform="translate(-830,-1160)">
        <g>
            <path style="fill:#D41B23;" d="M1262.2,1405c0-86.7-81.9-156.9-183-156.9s-183,70.3-183,156.9s81.9,250.8,183,250.8    S1262.2,1491.7,1262.2,1405z"/>
            <circle style="fill:#FFFFFF;" cx="1018.7" cy="1445.8" r="12.1"/>
            <circle style="fill:#FFFFFF;" cx="1079.3" cy="1397.5" r="12.1"/>
            <circle style="fill:#FFFFFF;" cx="1091.4" cy="1499" r="12.1"/>
            <circle style="fill:#FFFFFF;" cx="1152.4" cy="1409.6" r="12.1"/>
            <circle style="fill:#FFFFFF;" cx="1030.7" cy="1550.7" r="12.1"/>
            <circle style="fill:#FFFFFF;" cx="1086.6" cy="1612.1" r="12.1"/>
            <circle style="fill:#FFFFFF;" cx="1146.6" cy="1550.7" r="12.1"/>
            <circle style="fill:#FFFFFF;" cx="1227.8" cy="1385.4" r="12.1"/>
            <circle style="fill:#FFFFFF;" cx="1192.8" cy="1476.1" r="12.1"/>
            <circle style="fill:#FFFFFF;" cx="968.2" cy="1511.1" r="12.1"/>
            <circle style="fill:#FFFFFF;" cx="930.7" cy="1409.6" r="12.1"/>
            <circle style="fill:#FFFFFF;" cx="992.4" cy="1368.4" r="12.1"/>
            <path style="fill:#91AF24;" d="M1221,1281.4c0,0-14.6-41.3-48.7-56.7c-26.1-11.8-56-5-68.6-1.1c-3.4-4-7.6-7.3-12.3-9.7v-57.6    c0-6.6-5.4-12.1-12.1-12.1h0c-6.6,0-12.1,5.4-12.1,12.1v54.4c-9.5,1.8-17.7,7.2-23.3,14.7c-11.8-1.5-44.5-3.6-69.2,13.7    c-30.6,21.5-37.2,64.8-37.2,64.8s22.4,4.4,46.4-1.2c-5.3,22.3-2.2,42.7-2.2,42.7s43.6-4.8,66.3-34.5c0.1-0.1,0.2-0.2,0.2-0.3    c2.6,35.1,31.5,62.8,31.5,62.8s30.8-29.5,31.6-66.2c2.8,4,6,7.7,9.6,11.3c31.6,30.9,83.3,29.1,83.3,29.1s0.3-30.8-14.1-59.1    C1207.8,1286.7,1221,1281.4,1221,1281.4z"/>
        </g>
    </g>
</svg>