<svg xmlns="http://www.w3.org/2000/svg" xmlns:xlink="http://www.w3.org/1999/xlink" version="1.1" x="0px" y="0px" viewBox="0 0 600 500"  xml:space="preserve">
    <g id="Capa_3" transform="translate(-2070,-300)">
        <g>
            <g>
                <path style="fill:#91AF24;" d="M2098.3,416c0,149.9,121.6,271.5,271.5,271.5s271.5-121.6,271.5-271.5H2098.3z"/>
                <path style="fill:#D41B23;" d="M2130.4,416.5c0,132.2,107.2,239.4,239.4,239.4c132.2,0,239.4-107.2,239.4-239.4H2130.4z"/>
            </g>
            <path style="fill:#312626;" d="M2381,540.8c0-6.2-5-20.6-11.3-20.6c-6.2,0-11.3,14.3-11.3,20.6c0,6.2,5,11.3,11.3,11.3    C2376,552.1,2381,547,2381,540.8z"/>
            <path style="fill:#312626;" d="M2458.9,465.4c-2.2-5.8-12.1-17.4-17.9-15.2s-5.4,17.4-3.2,23.2s8.7,8.7,14.6,6.5    S2461.2,471.2,2458.9,465.4z"/>
            <path style="fill:#312626;" d="M2536.4,461.3c-3.8-5-16.5-13.3-21.4-9.6c-5,3.8-0.3,18.2,3.5,23.2c3.8,5,10.8,5.9,15.8,2.2    C2539.2,473.3,2540.1,466.2,2536.4,461.3z"/>
            <path style="fill:#312626;" d="M2478.7,551.8c-2.2-5.8-12.1-17.4-17.9-15.2c-5.8,2.2-5.4,17.4-3.2,23.2c2.2,5.8,8.7,8.7,14.6,6.5    C2478.1,564.1,2481,557.6,2478.7,551.8z"/>
            <path style="fill:#312626;" d="M2271.2,465.4c2.2-5.8,12.1-17.4,17.9-15.2c5.8,2.2,5.4,17.4,3.2,23.2s-8.7,8.7-14.6,6.5    C2271.9,477.7,2269,471.2,2271.2,465.4z"/>
            <path style="fill:#312626;" d="M2193.8,461.3c3.8-5,16.4-13.3,21.4-9.6c5,3.8,0.3,18.2-3.5,23.2c-3.8,5-10.8,5.9-15.8,2.2    C2191,473.3,2190,466.2,2193.8,461.3z"/>
            <path style="fill:#312626;" d="M2251.4,551.8c2.2-5.8,12.1-17.4,17.9-15.2c5.8,2.2,5.4,17.4,3.2,23.2c-2.2,5.8-8.7,8.7-14.6,6.5    C2252.1,564.1,2249.2,557.6,2251.4,551.8z"/>
            <path style="fill:#312626;" d="M2381,468.1c0-6.2-5-20.6-11.3-20.6c-6.2,0-11.3,14.3-11.3,20.6s5,11.3,11.3,11.3    C2376,479.3,2381,474.3,2381,468.1z"/>
            <path style="fill:#312626;" d="M2381,602c0-6.2-5-20.6-11.3-20.6c-6.2,0-11.3,14.3-11.3,20.6s5,11.3,11.3,11.3    C2376,613.2,2381,608.2,2381,602z"/>
        </g>
    </g>
</svg>